<svg width="267" height="46" viewBox="0 0 267 46" fill="none" xmlns="http://www.w3.org/2000/svg">
<path d="M9.24 11.08L17.24 27.2L25.2 11.08H28.4L29.2 37H26.52L26.28 17.48L26.24 14.6L18.52 29.8H15.92L8.2 14.6L7.92 37H5.24L6.12 11.08H9.24ZM36.1088 11.08H38.7488V37H36.1088V11.08ZM44.9906 34C47.044 34.7733 49.2573 35.16 51.6306 35.16C54.004 35.16 55.684 34.8133 56.6706 34.12C57.6573 33.4 58.1506 32.08 58.1506 30.16C58.1506 29.1467 57.8306 28.3067 57.1906 27.64C56.5773 27.0533 56.0173 26.6267 55.5106 26.36L54.0706 25.64C53.6173 25.4267 53.0573 25.1733 52.3906 24.88C51.7506 24.5867 51.1906 24.3333 50.7106 24.12C50.2306 23.88 49.5773 23.5467 48.7506 23.12C47.924 22.6667 47.3373 22.2933 46.9906 22C46.644 21.68 46.2573 21.2933 45.8306 20.84C45.084 20.0133 44.7106 18.9467 44.7106 17.64C44.7106 15.4267 45.4706 13.7067 46.9906 12.48C48.5106 11.2267 50.4706 10.6 52.8706 10.6C55.2706 10.6 57.4973 10.9333 59.5506 11.6L59.0306 13.6C57.3773 13.0667 55.4706 12.8 53.3106 12.8C51.1773 12.8 49.6706 13.1467 48.7906 13.84C47.9106 14.5067 47.4706 15.6667 47.4706 17.32C47.4706 18.5467 48.0973 19.56 49.3506 20.36C50.364 21 51.924 21.7867 54.0306 22.72C56.1373 23.6267 57.564 24.3333 58.3106 24.84C60.204 26.12 61.164 27.8533 61.1906 30.04C61.1906 34.92 58.0306 37.36 51.7106 37.36C49.0706 37.36 46.604 36.9733 44.3106 36.2L44.9906 34ZM81.2975 37H66.5775V11.08H80.8575L80.5775 13.32H69.2575V22.48H79.2575V24.72H69.2175V34.76H81.2975V37ZM110.673 37H95.9525V11.08H110.233L109.953 13.32H98.6325V22.48H108.633V24.72H98.5925V34.76H110.673V37ZM132.666 11.08H135.306V37H132.386L118.706 15.12L118.866 18.88V37H116.226V11.08H119.106L132.786 32.88L132.666 29.04V11.08ZM158.615 26.88L156.215 26.84H154.375V37H151.695V11.08H159.295C160.708 11.08 161.895 11.1733 162.855 11.36C163.841 11.52 164.788 11.8533 165.695 12.36C167.508 13.4267 168.415 15.6 168.415 18.88C168.415 21.6267 167.761 23.64 166.455 24.92C165.895 25.4533 165.148 25.88 164.215 26.2C163.281 26.4933 162.415 26.68 161.615 26.76C160.815 26.84 159.815 26.88 158.615 26.88ZM157.015 24.56L160.055 24.6C162.215 24.6 163.681 24.2667 164.455 23.6C165.228 22.9067 165.615 21.3867 165.615 19.04C165.615 16.6933 165.121 15.1867 164.135 14.52C163.175 13.8533 161.401 13.52 158.815 13.52H154.375V24.56H157.015ZM173.844 36.96H173.804V11.08H176.444L176.404 34.76H187.924V37H173.844V36.96ZM198.956 11.08H202.556L211.316 37H208.476L205.796 28.96H195.716L193.036 37H190.196L198.956 11.08ZM196.436 26.72H205.116L200.876 13.28H200.756L196.436 26.72ZM220.159 12C221.279 11.4133 222.319 11.04 223.279 10.88C224.239 10.6933 225.479 10.6 226.999 10.6C228.519 10.6 230.386 10.96 232.599 11.68L231.959 13.8C229.559 13.32 227.772 13.08 226.599 13.08C225.452 13.08 224.466 13.1467 223.639 13.28C222.812 13.3867 221.959 13.6533 221.079 14.08C220.226 14.5067 219.546 15.1067 219.039 15.88C217.892 17.64 217.319 20.3333 217.319 23.96C217.319 28.4133 218.119 31.4 219.719 32.92C220.492 33.64 221.292 34.1467 222.119 34.44C222.946 34.7067 223.852 34.84 224.839 34.84C225.852 34.84 226.599 34.8133 227.079 34.76C228.626 34.6533 230.159 34.1467 231.679 33.24L232.599 35.4C230.679 36.7067 228.172 37.36 225.079 37.36C223.879 37.36 222.839 37.28 221.959 37.12C221.079 36.9867 220.146 36.6667 219.159 36.16C218.172 35.6267 217.359 34.8933 216.719 33.96C216.106 33.0267 215.586 31.72 215.159 30.04C214.732 28.36 214.519 26.3867 214.519 24.12C214.519 21.8267 214.786 19.84 215.319 18.16C215.852 16.48 216.506 15.1733 217.279 14.24C218.079 13.3067 219.039 12.56 220.159 12ZM252.548 37H237.828V11.08H252.108L251.828 13.32H240.508V22.48H250.508V24.72H240.468V34.76H252.548V37Z" fill="white"/>
<path d="M9.24 11.08L10.1358 10.6355L9.8601 10.08H9.24V11.08ZM17.24 27.2L16.3442 27.6445L17.2422 29.454L18.1366 27.6428L17.24 27.2ZM25.2 11.08V10.08H24.5785L24.3034 10.6372L25.2 11.08ZM28.4 11.08L29.3995 11.0492L29.3696 10.08H28.4V11.08ZM29.2 37V38H30.2313L30.1995 36.9692L29.2 37ZM26.52 37L25.5201 37.0123L25.5322 38H26.52V37ZM26.28 17.48L27.2799 17.4677L27.2799 17.4661L26.28 17.48ZM26.24 14.6L27.2399 14.5861L25.3484 14.1472L26.24 14.6ZM18.52 29.8V30.8H19.1337L19.4116 30.2528L18.52 29.8ZM15.92 29.8L15.0284 30.2528L15.3063 30.8H15.92V29.8ZM8.2 14.6L9.09159 14.1472L7.20008 14.5875L8.2 14.6ZM7.92 37V38H8.90758L8.91992 37.0125L7.92 37ZM5.24 37L4.24058 36.9661L4.20547 38H5.24V37ZM6.12 11.08V10.08H5.15337L5.12058 11.0461L6.12 11.08ZM8.34424 11.5245L16.3442 27.6445L18.1358 26.7555L10.1358 10.6355L8.34424 11.5245ZM18.1366 27.6428L26.0966 11.5228L24.3034 10.6372L16.3434 26.7572L18.1366 27.6428ZM25.2 12.08H28.4V10.08H25.2V12.08ZM27.4005 11.1108L28.2005 37.0308L30.1995 36.9692L29.3995 11.0492L27.4005 11.1108ZM29.2 36H26.52V38H29.2V36ZM27.5199 36.9877L27.2799 17.4677L25.2801 17.4923L25.5201 37.0123L27.5199 36.9877ZM27.2799 17.4661L27.2399 14.5861L25.2401 14.6139L25.2801 17.4939L27.2799 17.4661ZM25.3484 14.1472L17.6284 29.3472L19.4116 30.2528L27.1316 15.0528L25.3484 14.1472ZM18.52 28.8H15.92V30.8H18.52V28.8ZM16.8116 29.3472L9.09159 14.1472L7.30841 15.0528L15.0284 30.2528L16.8116 29.3472ZM7.20008 14.5875L6.92008 36.9875L8.91992 37.0125L9.19992 14.6125L7.20008 14.5875ZM7.92 36H5.24V38H7.92V36ZM6.23942 37.0339L7.11942 11.1139L5.12058 11.0461L4.24058 36.9661L6.23942 37.0339ZM6.12 12.08H9.24V10.08H6.12V12.08ZM36.1088 11.08V10.08H35.1088V11.08H36.1088ZM38.7488 11.08H39.7488V10.08H38.7488V11.08ZM38.7488 37V38H39.7488V37H38.7488ZM36.1088 37H35.1088V38H36.1088V37ZM36.1088 12.08H38.7488V10.08H36.1088V12.08ZM37.7488 11.08V37H39.7488V11.08H37.7488ZM38.7488 36H36.1088V38H38.7488V36ZM37.1088 37V11.08H35.1088V37H37.1088ZM44.9906 34L45.3431 33.0642L44.3489 32.6898L44.0352 33.7047L44.9906 34ZM56.6706 34.12L57.2456 34.9382L57.2529 34.9331L57.2601 34.9278L56.6706 34.12ZM57.1906 27.64L57.912 26.9475L57.8973 26.9321L57.8818 26.9174L57.1906 27.64ZM55.5106 26.36L55.9764 25.4751L55.9672 25.4702L55.9578 25.4656L55.5106 26.36ZM54.0706 25.64L54.5178 24.7456L54.5072 24.7402L54.4964 24.7352L54.0706 25.64ZM52.3906 24.88L51.974 25.7891L51.9809 25.7922L51.9879 25.7953L52.3906 24.88ZM50.7106 24.12L50.2634 25.0144L50.2837 25.0246L50.3045 25.0338L50.7106 24.12ZM48.7506 23.12L48.2698 23.9968L48.2808 24.0029L48.292 24.0086L48.7506 23.12ZM46.9906 22L46.3123 22.7348L46.3282 22.7494L46.3447 22.7634L46.9906 22ZM45.8306 20.84L45.0885 21.5103L45.0954 21.5179L45.1024 21.5254L45.8306 20.84ZM46.9906 12.48L47.6187 13.2582L47.6268 13.2515L46.9906 12.48ZM59.5506 11.6L60.5184 11.8516L60.7555 10.9398L59.8594 10.6489L59.5506 11.6ZM59.0306 13.6L58.7236 14.5517L59.7319 14.8769L59.9984 13.8516L59.0306 13.6ZM48.7906 13.84L49.3945 14.6371L49.402 14.6314L49.4095 14.6255L48.7906 13.84ZM49.3506 20.36L48.8126 21.2029L48.8166 21.2055L49.3506 20.36ZM54.0306 22.72L53.6255 23.6343L53.6353 23.6385L54.0306 22.72ZM58.3106 24.84L57.7491 25.6675L57.7506 25.6684L58.3106 24.84ZM61.1906 30.04L62.1907 30.04L62.1906 30.0278L61.1906 30.04ZM44.3106 36.2L43.3552 35.9047L43.0673 36.8361L43.9911 37.1476L44.3106 36.2ZM44.6382 34.9358C46.813 35.7549 49.1468 36.16 51.6306 36.16V34.16C49.3678 34.16 47.2749 33.7917 45.3431 33.0642L44.6382 34.9358ZM51.6306 36.16C54.0429 36.16 55.9922 35.8189 57.2456 34.9382L56.0957 33.3018C55.3757 33.8078 53.965 34.16 51.6306 34.16V36.16ZM57.2601 34.9278C58.6254 33.9315 59.1506 32.2128 59.1506 30.16H57.1506C57.1506 31.9472 56.6892 32.8685 56.0812 33.3122L57.2601 34.9278ZM59.1506 30.16C59.1506 28.9157 58.7488 27.8191 57.912 26.9475L56.4692 28.3325C56.9125 28.7942 57.1506 29.3776 57.1506 30.16H59.1506ZM57.8818 26.9174C57.2304 26.2942 56.5947 25.8005 55.9764 25.4751L55.0449 27.2449C55.4399 27.4528 55.9242 27.8125 56.4994 28.3626L57.8818 26.9174ZM55.9578 25.4656L54.5178 24.7456L53.6234 26.5344L55.0634 27.2544L55.9578 25.4656ZM54.4964 24.7352C54.0329 24.517 53.4646 24.26 52.7934 23.9647L51.9879 25.7953C52.6499 26.0866 53.2017 26.3363 53.6448 26.5448L54.4964 24.7352ZM52.8073 23.9709C52.1649 23.6765 51.6012 23.4215 51.1168 23.2062L50.3045 25.0338C50.78 25.2452 51.3364 25.4968 51.974 25.7891L52.8073 23.9709ZM51.1578 23.2256C50.6834 22.9884 50.0344 22.6573 49.2093 22.2314L48.292 24.0086C49.1201 24.4361 49.7778 24.7716 50.2634 25.0144L51.1578 23.2256ZM49.2315 22.2432C48.4149 21.7954 47.9024 21.4616 47.6366 21.2366L46.3447 22.7634C46.7722 23.1251 47.433 23.5379 48.2698 23.9968L49.2315 22.2432ZM47.6689 21.2652C47.3439 20.9652 46.9742 20.5959 46.5588 20.1546L45.1024 21.5254C45.5404 21.9907 45.944 22.3948 46.3123 22.7348L47.6689 21.2652ZM46.5727 20.1697C46.0202 19.558 45.7106 18.7445 45.7106 17.64H43.7106C43.7106 19.1488 44.1477 20.4687 45.0885 21.5103L46.5727 20.1697ZM45.7106 17.64C45.7106 15.6835 46.3671 14.2682 47.6186 13.2582L46.3626 11.7018C44.5741 13.1451 43.7106 15.1698 43.7106 17.64H45.7106ZM47.6268 13.2515C48.931 12.1762 50.6503 11.6 52.8706 11.6V9.6C50.291 9.6 48.0903 10.2772 46.3544 11.7085L47.6268 13.2515ZM52.8706 11.6C55.1774 11.6 57.2987 11.9202 59.2418 12.5511L59.8594 10.6489C57.6959 9.94643 55.3639 9.6 52.8706 9.6V11.6ZM58.5828 11.3484L58.0628 13.3484L59.9984 13.8516L60.5184 11.8516L58.5828 11.3484ZM59.3376 12.6483C57.5644 12.0763 55.5506 11.8 53.3106 11.8V13.8C55.3907 13.8 57.1902 14.0571 58.7236 14.5517L59.3376 12.6483ZM53.3106 11.8C51.1277 11.8 49.3286 12.1431 48.1718 13.0545L49.4095 14.6255C50.0127 14.1503 51.2269 13.8 53.3106 13.8V11.8ZM48.1868 13.0429C46.9519 13.9784 46.4706 15.5149 46.4706 17.32H48.4706C48.4706 15.8184 48.8693 15.0349 49.3945 14.6371L48.1868 13.0429ZM46.4706 17.32C46.4706 18.9641 47.342 20.2642 48.8126 21.2029L49.8887 19.5171C48.8526 18.8558 48.4706 18.1293 48.4706 17.32H46.4706ZM48.8166 21.2055C49.8932 21.8854 51.507 22.6957 53.6256 23.6343L54.4357 21.8057C52.3409 20.8776 50.8347 20.1146 49.8846 19.5145L48.8166 21.2055ZM53.6353 23.6385C55.7458 24.5469 57.0907 25.2207 57.7491 25.6675L58.8721 24.0125C58.0372 23.446 56.5288 22.7065 54.4259 21.8015L53.6353 23.6385ZM57.7506 25.6684C59.3869 26.7747 60.1682 28.2104 60.1907 30.0522L62.1906 30.0278C62.1597 27.4963 61.021 25.4653 58.8707 24.0116L57.7506 25.6684ZM60.1906 30.04C60.1906 32.2467 59.4894 33.7502 58.2095 34.7385C56.8805 35.7647 54.7698 36.36 51.7106 36.36V38.36C54.9715 38.36 57.6008 37.7353 59.4318 36.3215C61.3118 34.8698 62.1906 32.7133 62.1906 30.04H60.1906ZM51.7106 36.36C49.1694 36.36 46.8116 35.988 44.6302 35.2524L43.9911 37.1476C46.3963 37.9586 48.9718 38.36 51.7106 38.36V36.36ZM45.266 36.4953L45.946 34.2953L44.0352 33.7047L43.3552 35.9047L45.266 36.4953ZM81.2975 37V38H82.2975V37H81.2975ZM66.5775 37H65.5775V38H66.5775V37ZM66.5775 11.08V10.08H65.5775V11.08H66.5775ZM80.8575 11.08L81.8498 11.204L81.9903 10.08H80.8575V11.08ZM80.5775 13.32V14.32H81.4603L81.5698 13.444L80.5775 13.32ZM69.2575 13.32V12.32H68.2575V13.32H69.2575ZM69.2575 22.48H68.2575V23.48H69.2575V22.48ZM79.2575 22.48H80.2575V21.48H79.2575V22.48ZM79.2575 24.72V25.72H80.2575V24.72H79.2575ZM69.2175 24.72V23.72H68.2175V24.72H69.2175ZM69.2175 34.76H68.2175V35.76H69.2175V34.76ZM81.2975 34.76H82.2975V33.76H81.2975V34.76ZM81.2975 36H66.5775V38H81.2975V36ZM67.5775 37V11.08H65.5775V37H67.5775ZM66.5775 12.08H80.8575V10.08H66.5775V12.08ZM79.8652 10.956L79.5852 13.196L81.5698 13.444L81.8498 11.204L79.8652 10.956ZM80.5775 12.32H69.2575V14.32H80.5775V12.32ZM68.2575 13.32V22.48H70.2575V13.32H68.2575ZM69.2575 23.48H79.2575V21.48H69.2575V23.48ZM78.2575 22.48V24.72H80.2575V22.48H78.2575ZM79.2575 23.72H69.2175V25.72H79.2575V23.72ZM68.2175 24.72V34.76H70.2175V24.72H68.2175ZM69.2175 35.76H81.2975V33.76H69.2175V35.76ZM80.2975 34.76V37H82.2975V34.76H80.2975ZM110.673 37V38H111.673V37H110.673ZM95.9525 37H94.9525V38H95.9525V37ZM95.9525 11.08V10.08H94.9525V11.08H95.9525ZM110.233 11.08L111.225 11.204L111.365 10.08H110.233V11.08ZM109.953 13.32V14.32H110.835L110.945 13.444L109.953 13.32ZM98.6325 13.32V12.32H97.6325V13.32H98.6325ZM98.6325 22.48H97.6325V23.48H98.6325V22.48ZM108.633 22.48H109.633V21.48H108.633V22.48ZM108.633 24.72V25.72H109.633V24.72H108.633ZM98.5925 24.72V23.72H97.5925V24.72H98.5925ZM98.5925 34.76H97.5925V35.76H98.5925V34.76ZM110.673 34.76H111.673V33.76H110.673V34.76ZM110.673 36H95.9525V38H110.673V36ZM96.9525 37V11.08H94.9525V37H96.9525ZM95.9525 12.08H110.233V10.08H95.9525V12.08ZM109.24 10.956L108.96 13.196L110.945 13.444L111.225 11.204L109.24 10.956ZM109.953 12.32H98.6325V14.32H109.953V12.32ZM97.6325 13.32V22.48H99.6325V13.32H97.6325ZM98.6325 23.48H108.633V21.48H98.6325V23.48ZM107.633 22.48V24.72H109.633V22.48H107.633ZM108.633 23.72H98.5925V25.72H108.633V23.72ZM97.5925 24.72V34.76H99.5925V24.72H97.5925ZM98.5925 35.76H110.673V33.76H98.5925V35.76ZM109.673 34.76V37H111.673V34.76H109.673ZM132.666 11.08V10.08H131.666V11.08H132.666ZM135.306 11.08H136.306V10.08H135.306V11.08ZM135.306 37V38H136.306V37H135.306ZM132.386 37L131.538 37.5301L131.832 38H132.386V37ZM118.706 15.12L119.554 14.5899L117.546 11.3782L117.707 15.1625L118.706 15.12ZM118.866 18.88H119.866V18.8587L119.865 18.8375L118.866 18.88ZM118.866 37V38H119.866V37H118.866ZM116.226 37H115.226V38H116.226V37ZM116.226 11.08V10.08H115.226V11.08H116.226ZM119.106 11.08L119.953 10.5485L119.659 10.08H119.106V11.08ZM132.786 32.88L131.939 33.4115L133.901 36.5378L133.785 32.8488L132.786 32.88ZM132.666 29.04H131.666V29.0556L131.666 29.0712L132.666 29.04ZM132.666 12.08H135.306V10.08H132.666V12.08ZM134.306 11.08V37H136.306V11.08H134.306ZM135.306 36H132.386V38H135.306V36ZM133.234 36.4699L119.554 14.5899L117.858 15.6501L131.538 37.5301L133.234 36.4699ZM117.707 15.1625L117.867 18.9225L119.865 18.8375L119.705 15.0775L117.707 15.1625ZM117.866 18.88V37H119.866V18.88H117.866ZM118.866 36H116.226V38H118.866V36ZM117.226 37V11.08H115.226V37H117.226ZM116.226 12.08H119.106V10.08H116.226V12.08ZM118.259 11.6115L131.939 33.4115L133.633 32.3485L119.953 10.5485L118.259 11.6115ZM133.785 32.8488L133.665 29.0088L131.666 29.0712L131.786 32.9112L133.785 32.8488ZM133.666 29.04V11.08H131.666V29.04H133.666ZM158.615 26.88L158.598 27.8799L158.606 27.88H158.615V26.88ZM156.215 26.84L156.231 25.8401L156.223 25.84H156.215V26.84ZM154.375 26.84V25.84H153.375V26.84H154.375ZM154.375 37V38H155.375V37H154.375ZM151.695 37H150.695V38H151.695V37ZM151.695 11.08V10.08H150.695V11.08H151.695ZM162.855 11.36L162.664 12.3416L162.679 12.3446L162.695 12.3471L162.855 11.36ZM165.695 12.36L166.202 11.4981L166.192 11.4925L166.183 11.4871L165.695 12.36ZM166.455 24.92L167.144 25.6442L167.154 25.6344L166.455 24.92ZM164.215 26.2L164.515 27.154L164.527 27.1501L164.539 27.1459L164.215 26.2ZM157.015 24.56L157.028 23.56H157.015V24.56ZM160.055 24.6L160.042 25.6H160.055V24.6ZM164.455 23.6L165.108 24.3574L165.115 24.3511L165.122 24.3446L164.455 23.6ZM164.135 14.52L163.564 15.3414L163.575 15.3486L164.135 14.52ZM154.375 13.52V12.52H153.375V13.52H154.375ZM154.375 24.56H153.375V25.56H154.375V24.56ZM158.631 25.8801L156.231 25.8401L156.198 27.8399L158.598 27.8799L158.631 25.8801ZM156.215 25.84H154.375V27.84H156.215V25.84ZM153.375 26.84V37H155.375V26.84H153.375ZM154.375 36H151.695V38H154.375V36ZM152.695 37V11.08H150.695V37H152.695ZM151.695 12.08H159.295V10.08H151.695V12.08ZM159.295 12.08C160.67 12.08 161.788 12.1713 162.664 12.3416L163.046 10.3784C162.002 10.1754 160.746 10.08 159.295 10.08V12.08ZM162.695 12.3471C163.562 12.4877 164.398 12.7809 165.207 13.2329L166.183 11.4871C165.178 10.9258 164.121 10.5523 163.015 10.3729L162.695 12.3471ZM165.188 13.2219C166.549 14.0229 167.415 15.7432 167.415 18.88H169.415C169.415 15.4568 168.467 12.8305 166.202 11.4981L165.188 13.2219ZM167.415 18.88C167.415 21.4915 166.791 23.1902 165.755 24.2056L167.154 25.6344C168.731 24.0898 169.415 21.7619 169.415 18.88H167.415ZM165.765 24.1959C165.334 24.6064 164.724 24.9684 163.89 25.2541L164.539 27.1459C165.572 26.7916 166.455 26.3003 167.144 25.6441L165.765 24.1959ZM163.915 25.246C163.033 25.5231 162.234 25.693 161.515 25.765L161.714 27.755C162.595 27.667 163.529 27.4636 164.515 27.154L163.915 25.246ZM161.515 25.765C160.76 25.8405 159.796 25.88 158.615 25.88V27.88C159.833 27.88 160.869 27.8395 161.714 27.755L161.515 25.765ZM157.002 25.5599L160.042 25.5999L160.068 23.6001L157.028 23.5601L157.002 25.5599ZM160.055 25.6C161.18 25.6 162.166 25.5138 162.996 25.3251C163.819 25.1381 164.552 24.8361 165.108 24.3574L163.802 22.8426C163.584 23.0306 163.197 23.2286 162.553 23.3749C161.916 23.5196 161.089 23.6 160.055 23.6V25.6ZM165.122 24.3446C165.714 23.8139 166.075 23.047 166.294 22.1865C166.515 21.3168 166.615 20.2597 166.615 19.04H164.615C164.615 20.1669 164.521 21.0432 164.356 21.6935C164.188 22.353 163.969 22.6928 163.787 22.8554L165.122 24.3446ZM166.615 19.04C166.615 16.6612 166.136 14.6651 164.695 13.6914L163.575 15.3486C164.107 15.7082 164.615 16.7254 164.615 19.04H166.615ZM164.705 13.6986C164.064 13.2532 163.227 12.9672 162.269 12.7872C161.302 12.6054 160.146 12.52 158.815 12.52V14.52C160.07 14.52 161.094 14.6013 161.9 14.7528C162.716 14.9061 163.246 15.1201 163.564 15.3414L164.705 13.6986ZM158.815 12.52H154.375V14.52H158.815V12.52ZM153.375 13.52V24.56H155.375V13.52H153.375ZM154.375 25.56H157.015V23.56H154.375V25.56ZM173.844 36.96H174.844V35.96H173.844V36.96ZM173.804 36.96H172.804V37.96H173.804V36.96ZM173.804 11.08V10.08H172.804V11.08H173.804ZM176.444 11.08L177.444 11.0817L177.446 10.08H176.444V11.08ZM176.404 34.76L175.404 34.7583L175.402 35.76H176.404V34.76ZM187.924 34.76H188.924V33.76H187.924V34.76ZM187.924 37V38H188.924V37H187.924ZM173.844 37H172.844V38H173.844V37ZM173.844 35.96H173.804V37.96H173.844V35.96ZM174.804 36.96V11.08H172.804V36.96H174.804ZM173.804 12.08H176.444V10.08H173.804V12.08ZM175.444 11.0783L175.404 34.7583L177.404 34.7617L177.444 11.0817L175.444 11.0783ZM176.404 35.76H187.924V33.76H176.404V35.76ZM186.924 34.76V37H188.924V34.76H186.924ZM187.924 36H173.844V38H187.924V36ZM174.844 37V36.96H172.844V37H174.844ZM198.956 11.08V10.08H198.238L198.009 10.7598L198.956 11.08ZM202.556 11.08L203.503 10.7598L203.274 10.08H202.556V11.08ZM211.316 37V38H212.709L212.263 36.6798L211.316 37ZM208.476 37L207.527 37.3162L207.755 38H208.476V37ZM205.796 28.96L206.745 28.6438L206.517 27.96H205.796V28.96ZM195.716 28.96V27.96H194.995L194.767 28.6438L195.716 28.96ZM193.036 37V38H193.757L193.985 37.3162L193.036 37ZM190.196 37L189.249 36.6798L188.802 38H190.196V37ZM196.436 26.72L195.484 26.414L195.064 27.72H196.436V26.72ZM205.116 26.72V27.72H206.48L206.07 26.4191L205.116 26.72ZM200.876 13.28L201.83 12.9791L201.609 12.28H200.876V13.28ZM200.756 13.28V12.28H200.027L199.804 12.974L200.756 13.28ZM198.956 12.08H202.556V10.08H198.956V12.08ZM201.609 11.4002L210.369 37.3202L212.263 36.6798L203.503 10.7598L201.609 11.4002ZM211.316 36H208.476V38H211.316V36ZM209.425 36.6838L206.745 28.6438L204.847 29.2762L207.527 37.3162L209.425 36.6838ZM205.796 27.96H195.716V29.96H205.796V27.96ZM194.767 28.6438L192.087 36.6838L193.985 37.3162L196.665 29.2762L194.767 28.6438ZM193.036 36H190.196V38H193.036V36ZM191.143 37.3202L199.903 11.4002L198.009 10.7598L189.249 36.6798L191.143 37.3202ZM196.436 27.72H205.116V25.72H196.436V27.72ZM206.07 26.4191L201.83 12.9791L199.922 13.5809L204.162 27.0209L206.07 26.4191ZM200.876 12.28H200.756V14.28H200.876V12.28ZM199.804 12.974L195.484 26.414L197.388 27.026L201.708 13.586L199.804 12.974ZM220.159 12L220.606 12.8944L220.615 12.8902L220.623 12.8858L220.159 12ZM223.279 10.88L223.443 11.8664L223.457 11.8642L223.47 11.8616L223.279 10.88ZM232.599 11.68L233.556 11.969L233.839 11.0319L232.908 10.729L232.599 11.68ZM231.959 13.8L231.763 14.7806L232.654 14.9588L232.916 14.089L231.959 13.8ZM223.639 13.28L223.767 14.2718L223.783 14.2698L223.798 14.2672L223.639 13.28ZM221.079 14.08L220.643 13.1801L220.632 13.1856L221.079 14.08ZM219.039 15.88L218.203 15.332L218.201 15.3341L219.039 15.88ZM219.719 32.92L219.03 33.645L219.038 33.6519L219.719 32.92ZM222.119 34.44L221.785 35.3824L221.798 35.3873L221.812 35.3917L222.119 34.44ZM227.079 34.76L227.01 33.7624L226.989 33.7638L226.969 33.7661L227.079 34.76ZM231.679 33.24L232.599 32.8481L232.15 31.7945L231.167 32.3812L231.679 33.24ZM232.599 35.4L233.162 36.2267L233.841 35.7643L233.519 35.0081L232.599 35.4ZM221.959 37.12L222.138 36.1361L222.123 36.1335L222.109 36.1313L221.959 37.12ZM219.159 36.16L218.684 37.0397L218.693 37.0447L218.702 37.0496L219.159 36.16ZM216.719 33.96L215.883 34.5092L215.889 34.5174L215.894 34.5255L216.719 33.96ZM215.159 30.04L214.19 30.2862L214.19 30.2862L215.159 30.04ZM215.319 18.16L216.272 18.4626L216.272 18.4626L215.319 18.16ZM217.279 14.24L216.52 13.5892L216.514 13.5956L216.509 13.602L217.279 14.24ZM220.623 12.8858C221.676 12.3345 222.614 12.0046 223.443 11.8664L223.115 9.8936C222.024 10.0754 220.882 10.4922 219.695 11.1142L220.623 12.8858ZM223.47 11.8616C224.343 11.6919 225.512 11.6 226.999 11.6V9.6C225.446 9.6 224.136 9.69473 223.088 9.89838L223.47 11.8616ZM226.999 11.6C228.374 11.6 230.129 11.9281 232.29 12.6309L232.908 10.729C230.642 9.9919 228.664 9.6 226.999 9.6V11.6ZM231.642 11.391L231.002 13.511L232.916 14.089L233.556 11.969L231.642 11.391ZM232.155 12.8194C229.744 12.3373 227.877 12.08 226.599 12.08V14.08C227.668 14.08 229.374 14.3027 231.763 14.7806L232.155 12.8194ZM226.599 12.08C225.417 12.08 224.374 12.1485 223.48 12.2928L223.798 14.2672C224.557 14.1449 225.488 14.08 226.599 14.08V12.08ZM223.511 12.2882C222.561 12.4109 221.603 12.7144 220.643 13.1802L221.515 14.9798C222.315 14.5923 223.064 14.3625 223.767 14.2718L223.511 12.2882ZM220.632 13.1856C219.626 13.6886 218.809 14.4059 218.203 15.332L219.876 16.428C220.282 15.8074 220.826 15.3247 221.526 14.9744L220.632 13.1856ZM218.201 15.3341C216.897 17.3362 216.319 20.2638 216.319 23.96H218.319C218.319 20.4028 218.888 17.9438 219.877 16.4259L218.201 15.3341ZM216.319 23.96C216.319 28.4446 217.106 31.817 219.03 33.645L220.408 32.195C219.132 30.983 218.319 28.3821 218.319 23.96H216.319ZM219.038 33.6519C219.891 34.4464 220.806 35.035 221.785 35.3824L222.453 33.4976C221.779 33.2583 221.094 32.8336 220.4 32.1881L219.038 33.6519ZM221.812 35.3917C222.75 35.6944 223.762 35.84 224.839 35.84V33.84C223.943 33.84 223.141 33.7189 222.426 33.4883L221.812 35.3917ZM224.839 35.84C225.858 35.84 226.651 35.8137 227.189 35.7539L226.969 33.7661C226.547 33.813 225.846 33.84 224.839 33.84V35.84ZM227.148 35.7576C228.872 35.6387 230.556 35.0745 232.191 34.0988L231.167 32.3812C229.762 33.2189 228.379 33.6679 227.01 33.7624L227.148 35.7576ZM230.759 33.6319L231.679 35.7919L233.519 35.0081L232.599 32.8481L230.759 33.6319ZM232.036 34.5733C230.329 35.7351 228.037 36.36 225.079 36.36V38.36C228.308 38.36 231.029 37.6782 233.162 36.2267L232.036 34.5733ZM225.079 36.36C223.92 36.36 222.943 36.2825 222.138 36.1361L221.78 38.1039C222.735 38.2775 223.838 38.36 225.079 38.36V36.36ZM222.109 36.1313C221.359 36.0176 220.529 35.7393 219.616 35.2704L218.702 37.0496C219.763 37.594 220.8 37.9557 221.809 38.1087L222.109 36.1313ZM219.635 35.2803C218.789 34.8232 218.095 34.1981 217.544 33.3945L215.894 34.5255C216.623 35.5886 217.556 36.4302 218.684 37.0397L219.635 35.2803ZM217.555 33.4108C217.027 32.6069 216.541 31.4188 216.128 29.7938L214.19 30.2862C214.63 32.0212 215.185 33.4464 215.883 34.5092L217.555 33.4108ZM216.128 29.7938C215.727 28.2146 215.519 26.3275 215.519 24.12H213.519C213.519 26.4458 213.738 28.5054 214.19 30.2862L216.128 29.7938ZM215.519 24.12C215.519 21.9002 215.778 20.0204 216.272 18.4626L214.366 17.8574C213.794 19.6596 213.519 21.7531 213.519 24.12H215.519ZM216.272 18.4626C216.783 16.8542 217.386 15.6782 218.049 14.878L216.509 13.602C215.625 14.6685 214.922 16.1058 214.366 17.8574L216.272 18.4626ZM218.038 14.8908C218.75 14.0606 219.603 13.396 220.606 12.8944L219.712 11.1056C218.475 11.724 217.408 12.5528 216.52 13.5892L218.038 14.8908ZM252.548 37V38H253.548V37H252.548ZM237.828 37H236.828V38H237.828V37ZM237.828 11.08V10.08H236.828V11.08H237.828ZM252.108 11.08L253.1 11.204L253.24 10.08H252.108V11.08ZM251.828 13.32V14.32H252.71L252.82 13.444L251.828 13.32ZM240.508 13.32V12.32H239.508V13.32H240.508ZM240.508 22.48H239.508V23.48H240.508V22.48ZM250.508 22.48H251.508V21.48H250.508V22.48ZM250.508 24.72V25.72H251.508V24.72H250.508ZM240.468 24.72V23.72H239.468V24.72H240.468ZM240.468 34.76H239.468V35.76H240.468V34.76ZM252.548 34.76H253.548V33.76H252.548V34.76ZM252.548 36H237.828V38H252.548V36ZM238.828 37V11.08H236.828V37H238.828ZM237.828 12.08H252.108V10.08H237.828V12.08ZM251.115 10.956L250.835 13.196L252.82 13.444L253.1 11.204L251.115 10.956ZM251.828 12.32H240.508V14.32H251.828V12.32ZM239.508 13.32V22.48H241.508V13.32H239.508ZM240.508 23.48H250.508V21.48H240.508V23.48ZM249.508 22.48V24.72H251.508V22.48H249.508ZM250.508 23.72H240.468V25.72H250.508V23.72ZM239.468 24.72V34.76H241.468V24.72H239.468ZM240.468 35.76H252.548V33.76H240.468V35.76ZM251.548 34.76V37H253.548V34.76H251.548Z" fill="#930000"/>
<g filter="url(#filter0_di_6_3)">
<path d="M8.24 11.08L16.24 27.2L24.2 11.08H27.4L28.2 37H25.52L25.28 17.48L25.24 14.6L17.52 29.8H14.92L7.2 14.6L6.92 37H4.24L5.12 11.08H8.24ZM35.1088 11.08H37.7488V37H35.1088V11.08ZM43.9906 34C46.044 34.7733 48.2573 35.16 50.6306 35.16C53.004 35.16 54.684 34.8133 55.6706 34.12C56.6573 33.4 57.1506 32.08 57.1506 30.16C57.1506 29.1467 56.8306 28.3067 56.1906 27.64C55.5773 27.0533 55.0173 26.6267 54.5106 26.36L53.0706 25.64C52.6173 25.4267 52.0573 25.1733 51.3906 24.88C50.7506 24.5867 50.1906 24.3333 49.7106 24.12C49.2306 23.88 48.5773 23.5467 47.7506 23.12C46.924 22.6667 46.3373 22.2933 45.9906 22C45.644 21.68 45.2573 21.2933 44.8306 20.84C44.084 20.0133 43.7106 18.9467 43.7106 17.64C43.7106 15.4267 44.4706 13.7067 45.9906 12.48C47.5106 11.2267 49.4706 10.6 51.8706 10.6C54.2706 10.6 56.4973 10.9333 58.5506 11.6L58.0306 13.6C56.3773 13.0667 54.4706 12.8 52.3106 12.8C50.1773 12.8 48.6706 13.1467 47.7906 13.84C46.9106 14.5067 46.4706 15.6667 46.4706 17.32C46.4706 18.5467 47.0973 19.56 48.3506 20.36C49.364 21 50.924 21.7867 53.0306 22.72C55.1373 23.6267 56.564 24.3333 57.3106 24.84C59.204 26.12 60.164 27.8533 60.1906 30.04C60.1906 34.92 57.0306 37.36 50.7106 37.36C48.0706 37.36 45.604 36.9733 43.3106 36.2L43.9906 34ZM80.2975 37H65.5775V11.08H79.8575L79.5775 13.32H68.2575V22.48H78.2575V24.72H68.2175V34.76H80.2975V37ZM109.673 37H94.9525V11.08H109.233L108.953 13.32H97.6325V22.48H107.633V24.72H97.5925V34.76H109.673V37ZM131.666 11.08H134.306V37H131.386L117.706 15.12L117.866 18.88V37H115.226V11.08H118.106L131.786 32.88L131.666 29.04V11.08ZM157.615 26.88L155.215 26.84H153.375V37H150.695V11.08H158.295C159.708 11.08 160.895 11.1733 161.855 11.36C162.841 11.52 163.788 11.8533 164.695 12.36C166.508 13.4267 167.415 15.6 167.415 18.88C167.415 21.6267 166.761 23.64 165.455 24.92C164.895 25.4533 164.148 25.88 163.215 26.2C162.281 26.4933 161.415 26.68 160.615 26.76C159.815 26.84 158.815 26.88 157.615 26.88ZM156.015 24.56L159.055 24.6C161.215 24.6 162.681 24.2667 163.455 23.6C164.228 22.9067 164.615 21.3867 164.615 19.04C164.615 16.6933 164.121 15.1867 163.135 14.52C162.175 13.8533 160.401 13.52 157.815 13.52H153.375V24.56H156.015ZM172.844 36.96H172.804V11.08H175.444L175.404 34.76H186.924V37H172.844V36.96ZM197.956 11.08H201.556L210.316 37H207.476L204.796 28.96H194.716L192.036 37H189.196L197.956 11.08ZM195.436 26.72H204.116L199.876 13.28H199.756L195.436 26.72ZM219.159 12C220.279 11.4133 221.319 11.04 222.279 10.88C223.239 10.6933 224.479 10.6 225.999 10.6C227.519 10.6 229.386 10.96 231.599 11.68L230.959 13.8C228.559 13.32 226.772 13.08 225.599 13.08C224.452 13.08 223.466 13.1467 222.639 13.28C221.812 13.3867 220.959 13.6533 220.079 14.08C219.226 14.5067 218.546 15.1067 218.039 15.88C216.892 17.64 216.319 20.3333 216.319 23.96C216.319 28.4133 217.119 31.4 218.719 32.92C219.492 33.64 220.292 34.1467 221.119 34.44C221.946 34.7067 222.852 34.84 223.839 34.84C224.852 34.84 225.599 34.8133 226.079 34.76C227.626 34.6533 229.159 34.1467 230.679 33.24L231.599 35.4C229.679 36.7067 227.172 37.36 224.079 37.36C222.879 37.36 221.839 37.28 220.959 37.12C220.079 36.9867 219.146 36.6667 218.159 36.16C217.172 35.6267 216.359 34.8933 215.719 33.96C215.106 33.0267 214.586 31.72 214.159 30.04C213.732 28.36 213.519 26.3867 213.519 24.12C213.519 21.8267 213.786 19.84 214.319 18.16C214.852 16.48 215.506 15.1733 216.279 14.24C217.079 13.3067 218.039 12.56 219.159 12ZM251.548 37H236.828V11.08H251.108L250.828 13.32H239.508V22.48H249.508V24.72H239.468V34.76H251.548V37Z" fill="black"/>
<path d="M8.24 11.08L9.13576 10.6355L8.8601 10.08H8.24V11.08ZM16.24 27.2L15.3442 27.6445L16.2422 29.454L17.1366 27.6428L16.24 27.2ZM24.2 11.08V10.08H23.5785L23.3034 10.6372L24.2 11.08ZM27.4 11.08L28.3995 11.0492L28.3696 10.08H27.4V11.08ZM28.2 37V38H29.2313L29.1995 36.9692L28.2 37ZM25.52 37L24.5201 37.0123L24.5322 38H25.52V37ZM25.28 17.48L26.2799 17.4677L26.2799 17.4661L25.28 17.48ZM25.24 14.6L26.2399 14.5861L24.3484 14.1472L25.24 14.6ZM17.52 29.8V30.8H18.1337L18.4116 30.2528L17.52 29.8ZM14.92 29.8L14.0284 30.2528L14.3063 30.8H14.92V29.8ZM7.2 14.6L8.09159 14.1472L6.20008 14.5875L7.2 14.6ZM6.92 37V38H7.90758L7.91992 37.0125L6.92 37ZM4.24 37L3.24058 36.9661L3.20547 38H4.24V37ZM5.12 11.08V10.08H4.15337L4.12058 11.0461L5.12 11.08ZM7.34424 11.5245L15.3442 27.6445L17.1358 26.7555L9.13576 10.6355L7.34424 11.5245ZM17.1366 27.6428L25.0966 11.5228L23.3034 10.6372L15.3434 26.7572L17.1366 27.6428ZM24.2 12.08H27.4V10.08H24.2V12.08ZM26.4005 11.1108L27.2005 37.0308L29.1995 36.9692L28.3995 11.0492L26.4005 11.1108ZM28.2 36H25.52V38H28.2V36ZM26.5199 36.9877L26.2799 17.4677L24.2801 17.4923L24.5201 37.0123L26.5199 36.9877ZM26.2799 17.4661L26.2399 14.5861L24.2401 14.6139L24.2801 17.4939L26.2799 17.4661ZM24.3484 14.1472L16.6284 29.3472L18.4116 30.2528L26.1316 15.0528L24.3484 14.1472ZM17.52 28.8H14.92V30.8H17.52V28.8ZM15.8116 29.3472L8.09159 14.1472L6.30841 15.0528L14.0284 30.2528L15.8116 29.3472ZM6.20008 14.5875L5.92008 36.9875L7.91992 37.0125L8.19992 14.6125L6.20008 14.5875ZM6.92 36H4.24V38H6.92V36ZM5.23942 37.0339L6.11942 11.1139L4.12058 11.0461L3.24058 36.9661L5.23942 37.0339ZM5.12 12.08H8.24V10.08H5.12V12.08ZM35.1088 11.08V10.08H34.1088V11.08H35.1088ZM37.7488 11.08H38.7488V10.08H37.7488V11.08ZM37.7488 37V38H38.7488V37H37.7488ZM35.1088 37H34.1088V38H35.1088V37ZM35.1088 12.08H37.7488V10.08H35.1088V12.08ZM36.7488 11.08V37H38.7488V11.08H36.7488ZM37.7488 36H35.1088V38H37.7488V36ZM36.1088 37V11.08H34.1088V37H36.1088ZM43.9906 34L44.3431 33.0642L43.3489 32.6898L43.0352 33.7047L43.9906 34ZM55.6706 34.12L56.2456 34.9382L56.2529 34.9331L56.2601 34.9278L55.6706 34.12ZM56.1906 27.64L56.912 26.9475L56.8973 26.9321L56.8818 26.9174L56.1906 27.64ZM54.5106 26.36L54.9764 25.4751L54.9672 25.4702L54.9578 25.4656L54.5106 26.36ZM53.0706 25.64L53.5178 24.7456L53.5072 24.7402L53.4964 24.7352L53.0706 25.64ZM51.3906 24.88L50.974 25.7891L50.9809 25.7922L50.9879 25.7953L51.3906 24.88ZM49.7106 24.12L49.2634 25.0144L49.2837 25.0246L49.3045 25.0338L49.7106 24.12ZM47.7506 23.12L47.2698 23.9968L47.2808 24.0029L47.292 24.0086L47.7506 23.12ZM45.9906 22L45.3123 22.7348L45.3282 22.7494L45.3447 22.7634L45.9906 22ZM44.8306 20.84L44.0885 21.5103L44.0954 21.5179L44.1024 21.5254L44.8306 20.84ZM45.9906 12.48L46.6187 13.2582L46.6268 13.2515L45.9906 12.48ZM58.5506 11.6L59.5184 11.8516L59.7555 10.9398L58.8594 10.6489L58.5506 11.6ZM58.0306 13.6L57.7236 14.5517L58.7319 14.8769L58.9984 13.8516L58.0306 13.6ZM47.7906 13.84L48.3945 14.6371L48.402 14.6314L48.4095 14.6255L47.7906 13.84ZM48.3506 20.36L47.8126 21.2029L47.8166 21.2055L48.3506 20.36ZM53.0306 22.72L52.6255 23.6343L52.6353 23.6385L53.0306 22.72ZM57.3106 24.84L56.7491 25.6675L56.7506 25.6684L57.3106 24.84ZM60.1906 30.04L61.1907 30.04L61.1906 30.0278L60.1906 30.04ZM43.3106 36.2L42.3552 35.9047L42.0673 36.8361L42.9911 37.1476L43.3106 36.2ZM43.6382 34.9358C45.813 35.7549 48.1468 36.16 50.6306 36.16V34.16C48.3678 34.16 46.2749 33.7917 44.3431 33.0642L43.6382 34.9358ZM50.6306 36.16C53.0429 36.16 54.9922 35.8189 56.2456 34.9382L55.0957 33.3018C54.3757 33.8078 52.965 34.16 50.6306 34.16V36.16ZM56.2601 34.9278C57.6254 33.9315 58.1506 32.2128 58.1506 30.16H56.1506C56.1506 31.9472 55.6892 32.8685 55.0812 33.3122L56.2601 34.9278ZM58.1506 30.16C58.1506 28.9157 57.7488 27.8191 56.912 26.9475L55.4692 28.3325C55.9125 28.7942 56.1506 29.3776 56.1506 30.16H58.1506ZM56.8818 26.9174C56.2304 26.2942 55.5947 25.8005 54.9764 25.4751L54.0449 27.2449C54.4399 27.4528 54.9242 27.8125 55.4994 28.3626L56.8818 26.9174ZM54.9578 25.4656L53.5178 24.7456L52.6234 26.5344L54.0634 27.2544L54.9578 25.4656ZM53.4964 24.7352C53.0329 24.517 52.4646 24.26 51.7934 23.9647L50.9879 25.7953C51.6499 26.0866 52.2017 26.3363 52.6448 26.5448L53.4964 24.7352ZM51.8073 23.9709C51.1649 23.6765 50.6012 23.4215 50.1168 23.2062L49.3045 25.0338C49.78 25.2452 50.3364 25.4968 50.974 25.7891L51.8073 23.9709ZM50.1578 23.2256C49.6834 22.9884 49.0344 22.6573 48.2093 22.2314L47.292 24.0086C48.1201 24.4361 48.7778 24.7716 49.2634 25.0144L50.1578 23.2256ZM48.2315 22.2432C47.4149 21.7954 46.9024 21.4616 46.6366 21.2366L45.3447 22.7634C45.7722 23.1251 46.433 23.5379 47.2698 23.9968L48.2315 22.2432ZM46.6689 21.2652C46.3439 20.9652 45.9742 20.5959 45.5588 20.1546L44.1024 21.5254C44.5404 21.9907 44.944 22.3948 45.3123 22.7348L46.6689 21.2652ZM45.5727 20.1697C45.0202 19.558 44.7106 18.7445 44.7106 17.64H42.7106C42.7106 19.1488 43.1477 20.4687 44.0885 21.5103L45.5727 20.1697ZM44.7106 17.64C44.7106 15.6835 45.3671 14.2682 46.6186 13.2582L45.3626 11.7018C43.5741 13.1451 42.7106 15.1698 42.7106 17.64H44.7106ZM46.6268 13.2515C47.931 12.1762 49.6503 11.6 51.8706 11.6V9.6C49.291 9.6 47.0903 10.2772 45.3544 11.7085L46.6268 13.2515ZM51.8706 11.6C54.1774 11.6 56.2987 11.9202 58.2418 12.5511L58.8594 10.6489C56.6959 9.94643 54.3639 9.6 51.8706 9.6V11.6ZM57.5828 11.3484L57.0628 13.3484L58.9984 13.8516L59.5184 11.8516L57.5828 11.3484ZM58.3376 12.6483C56.5644 12.0763 54.5506 11.8 52.3106 11.8V13.8C54.3907 13.8 56.1902 14.0571 57.7236 14.5517L58.3376 12.6483ZM52.3106 11.8C50.1277 11.8 48.3286 12.1431 47.1718 13.0545L48.4095 14.6255C49.0127 14.1503 50.2269 13.8 52.3106 13.8V11.8ZM47.1868 13.0429C45.9519 13.9784 45.4706 15.5149 45.4706 17.32H47.4706C47.4706 15.8184 47.8693 15.0349 48.3945 14.6371L47.1868 13.0429ZM45.4706 17.32C45.4706 18.9641 46.342 20.2642 47.8126 21.2029L48.8887 19.5171C47.8526 18.8558 47.4706 18.1293 47.4706 17.32H45.4706ZM47.8166 21.2055C48.8932 21.8854 50.507 22.6957 52.6256 23.6343L53.4357 21.8057C51.3409 20.8776 49.8347 20.1146 48.8846 19.5145L47.8166 21.2055ZM52.6353 23.6385C54.7458 24.5469 56.0907 25.2207 56.7491 25.6675L57.8721 24.0125C57.0372 23.446 55.5288 22.7065 53.4259 21.8015L52.6353 23.6385ZM56.7506 25.6684C58.3869 26.7747 59.1682 28.2104 59.1907 30.0522L61.1906 30.0278C61.1597 27.4963 60.021 25.4653 57.8707 24.0116L56.7506 25.6684ZM59.1906 30.04C59.1906 32.2467 58.4894 33.7502 57.2095 34.7385C55.8805 35.7647 53.7698 36.36 50.7106 36.36V38.36C53.9715 38.36 56.6008 37.7353 58.4318 36.3215C60.3118 34.8698 61.1906 32.7133 61.1906 30.04H59.1906ZM50.7106 36.36C48.1694 36.36 45.8116 35.988 43.6302 35.2524L42.9911 37.1476C45.3963 37.9586 47.9718 38.36 50.7106 38.36V36.36ZM44.266 36.4953L44.946 34.2953L43.0352 33.7047L42.3552 35.9047L44.266 36.4953ZM80.2975 37V38H81.2975V37H80.2975ZM65.5775 37H64.5775V38H65.5775V37ZM65.5775 11.08V10.08H64.5775V11.08H65.5775ZM79.8575 11.08L80.8498 11.204L80.9903 10.08H79.8575V11.08ZM79.5775 13.32V14.32H80.4603L80.5698 13.444L79.5775 13.32ZM68.2575 13.32V12.32H67.2575V13.32H68.2575ZM68.2575 22.48H67.2575V23.48H68.2575V22.48ZM78.2575 22.48H79.2575V21.48H78.2575V22.48ZM78.2575 24.72V25.72H79.2575V24.72H78.2575ZM68.2175 24.72V23.72H67.2175V24.72H68.2175ZM68.2175 34.76H67.2175V35.76H68.2175V34.76ZM80.2975 34.76H81.2975V33.76H80.2975V34.76ZM80.2975 36H65.5775V38H80.2975V36ZM66.5775 37V11.08H64.5775V37H66.5775ZM65.5775 12.08H79.8575V10.08H65.5775V12.08ZM78.8652 10.956L78.5852 13.196L80.5698 13.444L80.8498 11.204L78.8652 10.956ZM79.5775 12.32H68.2575V14.32H79.5775V12.32ZM67.2575 13.32V22.48H69.2575V13.32H67.2575ZM68.2575 23.48H78.2575V21.48H68.2575V23.48ZM77.2575 22.48V24.72H79.2575V22.48H77.2575ZM78.2575 23.72H68.2175V25.72H78.2575V23.72ZM67.2175 24.72V34.76H69.2175V24.72H67.2175ZM68.2175 35.76H80.2975V33.76H68.2175V35.76ZM79.2975 34.76V37H81.2975V34.76H79.2975ZM109.673 37V38H110.673V37H109.673ZM94.9525 37H93.9525V38H94.9525V37ZM94.9525 11.08V10.08H93.9525V11.08H94.9525ZM109.233 11.08L110.225 11.204L110.365 10.08H109.233V11.08ZM108.953 13.32V14.32H109.835L109.945 13.444L108.953 13.32ZM97.6325 13.32V12.32H96.6325V13.32H97.6325ZM97.6325 22.48H96.6325V23.48H97.6325V22.48ZM107.633 22.48H108.633V21.48H107.633V22.48ZM107.633 24.72V25.72H108.633V24.72H107.633ZM97.5925 24.72V23.72H96.5925V24.72H97.5925ZM97.5925 34.76H96.5925V35.76H97.5925V34.76ZM109.673 34.76H110.673V33.76H109.673V34.76ZM109.673 36H94.9525V38H109.673V36ZM95.9525 37V11.08H93.9525V37H95.9525ZM94.9525 12.08H109.233V10.08H94.9525V12.08ZM108.24 10.956L107.96 13.196L109.945 13.444L110.225 11.204L108.24 10.956ZM108.953 12.32H97.6325V14.32H108.953V12.32ZM96.6325 13.32V22.48H98.6325V13.32H96.6325ZM97.6325 23.48H107.633V21.48H97.6325V23.48ZM106.633 22.48V24.72H108.633V22.48H106.633ZM107.633 23.72H97.5925V25.72H107.633V23.72ZM96.5925 24.72V34.76H98.5925V24.72H96.5925ZM97.5925 35.76H109.673V33.76H97.5925V35.76ZM108.673 34.76V37H110.673V34.76H108.673ZM131.666 11.08V10.08H130.666V11.08H131.666ZM134.306 11.08H135.306V10.08H134.306V11.08ZM134.306 37V38H135.306V37H134.306ZM131.386 37L130.538 37.5301L130.832 38H131.386V37ZM117.706 15.12L118.554 14.5899L116.546 11.3782L116.707 15.1625L117.706 15.12ZM117.866 18.88H118.866V18.8587L118.865 18.8375L117.866 18.88ZM117.866 37V38H118.866V37H117.866ZM115.226 37H114.226V38H115.226V37ZM115.226 11.08V10.08H114.226V11.08H115.226ZM118.106 11.08L118.953 10.5485L118.659 10.08H118.106V11.08ZM131.786 32.88L130.939 33.4115L132.901 36.5378L132.785 32.8488L131.786 32.88ZM131.666 29.04H130.666V29.0556L130.666 29.0712L131.666 29.04ZM131.666 12.08H134.306V10.08H131.666V12.08ZM133.306 11.08V37H135.306V11.08H133.306ZM134.306 36H131.386V38H134.306V36ZM132.234 36.4699L118.554 14.5899L116.858 15.6501L130.538 37.5301L132.234 36.4699ZM116.707 15.1625L116.867 18.9225L118.865 18.8375L118.705 15.0775L116.707 15.1625ZM116.866 18.88V37H118.866V18.88H116.866ZM117.866 36H115.226V38H117.866V36ZM116.226 37V11.08H114.226V37H116.226ZM115.226 12.08H118.106V10.08H115.226V12.08ZM117.259 11.6115L130.939 33.4115L132.633 32.3485L118.953 10.5485L117.259 11.6115ZM132.785 32.8488L132.665 29.0088L130.666 29.0712L130.786 32.9112L132.785 32.8488ZM132.666 29.04V11.08H130.666V29.04H132.666ZM157.615 26.88L157.598 27.8799L157.606 27.88H157.615V26.88ZM155.215 26.84L155.231 25.8401L155.223 25.84H155.215V26.84ZM153.375 26.84V25.84H152.375V26.84H153.375ZM153.375 37V38H154.375V37H153.375ZM150.695 37H149.695V38H150.695V37ZM150.695 11.08V10.08H149.695V11.08H150.695ZM161.855 11.36L161.664 12.3416L161.679 12.3446L161.695 12.3471L161.855 11.36ZM164.695 12.36L165.202 11.4981L165.192 11.4925L165.183 11.4871L164.695 12.36ZM165.455 24.92L166.144 25.6442L166.154 25.6344L165.455 24.92ZM163.215 26.2L163.515 27.154L163.527 27.1501L163.539 27.1459L163.215 26.2ZM156.015 24.56L156.028 23.56H156.015V24.56ZM159.055 24.6L159.042 25.6H159.055V24.6ZM163.455 23.6L164.108 24.3574L164.115 24.3511L164.122 24.3446L163.455 23.6ZM163.135 14.52L162.564 15.3414L162.575 15.3486L163.135 14.52ZM153.375 13.52V12.52H152.375V13.52H153.375ZM153.375 24.56H152.375V25.56H153.375V24.56ZM157.631 25.8801L155.231 25.8401L155.198 27.8399L157.598 27.8799L157.631 25.8801ZM155.215 25.84H153.375V27.84H155.215V25.84ZM152.375 26.84V37H154.375V26.84H152.375ZM153.375 36H150.695V38H153.375V36ZM151.695 37V11.08H149.695V37H151.695ZM150.695 12.08H158.295V10.08H150.695V12.08ZM158.295 12.08C159.67 12.08 160.788 12.1713 161.664 12.3416L162.046 10.3784C161.002 10.1754 159.746 10.08 158.295 10.08V12.08ZM161.695 12.3471C162.562 12.4877 163.398 12.7809 164.207 13.2329L165.183 11.4871C164.178 10.9258 163.121 10.5523 162.015 10.3729L161.695 12.3471ZM164.188 13.2219C165.549 14.0229 166.415 15.7432 166.415 18.88H168.415C168.415 15.4568 167.467 12.8305 165.202 11.4981L164.188 13.2219ZM166.415 18.88C166.415 21.4915 165.791 23.1902 164.755 24.2056L166.154 25.6344C167.731 24.0898 168.415 21.7619 168.415 18.88H166.415ZM164.765 24.1959C164.334 24.6064 163.724 24.9684 162.89 25.2541L163.539 27.1459C164.572 26.7916 165.455 26.3003 166.144 25.6441L164.765 24.1959ZM162.915 25.246C162.033 25.5231 161.234 25.693 160.515 25.765L160.714 27.755C161.595 27.667 162.529 27.4636 163.515 27.154L162.915 25.246ZM160.515 25.765C159.76 25.8405 158.796 25.88 157.615 25.88V27.88C158.833 27.88 159.869 27.8395 160.714 27.755L160.515 25.765ZM156.002 25.5599L159.042 25.5999L159.068 23.6001L156.028 23.5601L156.002 25.5599ZM159.055 25.6C160.18 25.6 161.166 25.5138 161.996 25.3251C162.819 25.1381 163.552 24.8361 164.108 24.3574L162.802 22.8426C162.584 23.0306 162.197 23.2286 161.553 23.3749C160.916 23.5196 160.089 23.6 159.055 23.6V25.6ZM164.122 24.3446C164.714 23.8139 165.075 23.047 165.294 22.1865C165.515 21.3168 165.615 20.2597 165.615 19.04H163.615C163.615 20.1669 163.521 21.0432 163.356 21.6935C163.188 22.353 162.969 22.6928 162.787 22.8554L164.122 24.3446ZM165.615 19.04C165.615 16.6612 165.136 14.6651 163.695 13.6914L162.575 15.3486C163.107 15.7082 163.615 16.7254 163.615 19.04H165.615ZM163.705 13.6986C163.064 13.2532 162.227 12.9672 161.269 12.7872C160.302 12.6054 159.146 12.52 157.815 12.52V14.52C159.07 14.52 160.094 14.6013 160.9 14.7528C161.716 14.9061 162.246 15.1201 162.564 15.3414L163.705 13.6986ZM157.815 12.52H153.375V14.52H157.815V12.52ZM152.375 13.52V24.56H154.375V13.52H152.375ZM153.375 25.56H156.015V23.56H153.375V25.56ZM172.844 36.96H173.844V35.96H172.844V36.96ZM172.804 36.96H171.804V37.96H172.804V36.96ZM172.804 11.08V10.08H171.804V11.08H172.804ZM175.444 11.08L176.444 11.0817L176.446 10.08H175.444V11.08ZM175.404 34.76L174.404 34.7583L174.402 35.76H175.404V34.76ZM186.924 34.76H187.924V33.76H186.924V34.76ZM186.924 37V38H187.924V37H186.924ZM172.844 37H171.844V38H172.844V37ZM172.844 35.96H172.804V37.96H172.844V35.96ZM173.804 36.96V11.08H171.804V36.96H173.804ZM172.804 12.08H175.444V10.08H172.804V12.08ZM174.444 11.0783L174.404 34.7583L176.404 34.7617L176.444 11.0817L174.444 11.0783ZM175.404 35.76H186.924V33.76H175.404V35.76ZM185.924 34.76V37H187.924V34.76H185.924ZM186.924 36H172.844V38H186.924V36ZM173.844 37V36.96H171.844V37H173.844ZM197.956 11.08V10.08H197.238L197.009 10.7598L197.956 11.08ZM201.556 11.08L202.503 10.7598L202.274 10.08H201.556V11.08ZM210.316 37V38H211.709L211.263 36.6798L210.316 37ZM207.476 37L206.527 37.3162L206.755 38H207.476V37ZM204.796 28.96L205.745 28.6438L205.517 27.96H204.796V28.96ZM194.716 28.96V27.96H193.995L193.767 28.6438L194.716 28.96ZM192.036 37V38H192.757L192.985 37.3162L192.036 37ZM189.196 37L188.249 36.6798L187.802 38H189.196V37ZM195.436 26.72L194.484 26.414L194.064 27.72H195.436V26.72ZM204.116 26.72V27.72H205.48L205.07 26.4191L204.116 26.72ZM199.876 13.28L200.83 12.9791L200.609 12.28H199.876V13.28ZM199.756 13.28V12.28H199.027L198.804 12.974L199.756 13.28ZM197.956 12.08H201.556V10.08H197.956V12.08ZM200.609 11.4002L209.369 37.3202L211.263 36.6798L202.503 10.7598L200.609 11.4002ZM210.316 36H207.476V38H210.316V36ZM208.425 36.6838L205.745 28.6438L203.847 29.2762L206.527 37.3162L208.425 36.6838ZM204.796 27.96H194.716V29.96H204.796V27.96ZM193.767 28.6438L191.087 36.6838L192.985 37.3162L195.665 29.2762L193.767 28.6438ZM192.036 36H189.196V38H192.036V36ZM190.143 37.3202L198.903 11.4002L197.009 10.7598L188.249 36.6798L190.143 37.3202ZM195.436 27.72H204.116V25.72H195.436V27.72ZM205.07 26.4191L200.83 12.9791L198.922 13.5809L203.162 27.0209L205.07 26.4191ZM199.876 12.28H199.756V14.28H199.876V12.28ZM198.804 12.974L194.484 26.414L196.388 27.026L200.708 13.586L198.804 12.974ZM219.159 12L219.606 12.8944L219.615 12.8902L219.623 12.8858L219.159 12ZM222.279 10.88L222.443 11.8664L222.457 11.8642L222.47 11.8616L222.279 10.88ZM231.599 11.68L232.556 11.969L232.839 11.0319L231.908 10.729L231.599 11.68ZM230.959 13.8L230.763 14.7806L231.654 14.9588L231.916 14.089L230.959 13.8ZM222.639 13.28L222.767 14.2718L222.783 14.2698L222.798 14.2672L222.639 13.28ZM220.079 14.08L219.643 13.1801L219.632 13.1856L220.079 14.08ZM218.039 15.88L217.203 15.332L217.201 15.3341L218.039 15.88ZM218.719 32.92L218.03 33.645L218.038 33.6519L218.719 32.92ZM221.119 34.44L220.785 35.3824L220.798 35.3873L220.812 35.3917L221.119 34.44ZM226.079 34.76L226.01 33.7624L225.989 33.7638L225.969 33.7661L226.079 34.76ZM230.679 33.24L231.599 32.8481L231.15 31.7945L230.167 32.3812L230.679 33.24ZM231.599 35.4L232.162 36.2267L232.841 35.7643L232.519 35.0081L231.599 35.4ZM220.959 37.12L221.138 36.1361L221.123 36.1335L221.109 36.1313L220.959 37.12ZM218.159 36.16L217.684 37.0397L217.693 37.0447L217.702 37.0496L218.159 36.16ZM215.719 33.96L214.883 34.5092L214.889 34.5174L214.894 34.5255L215.719 33.96ZM214.159 30.04L213.19 30.2862L213.19 30.2862L214.159 30.04ZM214.319 18.16L215.272 18.4626L215.272 18.4626L214.319 18.16ZM216.279 14.24L215.52 13.5892L215.514 13.5956L215.509 13.602L216.279 14.24ZM219.623 12.8858C220.676 12.3345 221.614 12.0046 222.443 11.8664L222.115 9.8936C221.024 10.0754 219.882 10.4922 218.695 11.1142L219.623 12.8858ZM222.47 11.8616C223.343 11.6919 224.512 11.6 225.999 11.6V9.6C224.446 9.6 223.136 9.69473 222.088 9.89838L222.47 11.8616ZM225.999 11.6C227.374 11.6 229.129 11.9281 231.29 12.6309L231.908 10.729C229.642 9.9919 227.664 9.6 225.999 9.6V11.6ZM230.642 11.391L230.002 13.511L231.916 14.089L232.556 11.969L230.642 11.391ZM231.155 12.8194C228.744 12.3373 226.877 12.08 225.599 12.08V14.08C226.668 14.08 228.374 14.3027 230.763 14.7806L231.155 12.8194ZM225.599 12.08C224.417 12.08 223.374 12.1485 222.48 12.2928L222.798 14.2672C223.557 14.1449 224.488 14.08 225.599 14.08V12.08ZM222.511 12.2882C221.561 12.4109 220.603 12.7144 219.643 13.1802L220.515 14.9798C221.315 14.5923 222.064 14.3625 222.767 14.2718L222.511 12.2882ZM219.632 13.1856C218.626 13.6886 217.809 14.4059 217.203 15.332L218.876 16.428C219.282 15.8074 219.826 15.3247 220.526 14.9744L219.632 13.1856ZM217.201 15.3341C215.897 17.3362 215.319 20.2638 215.319 23.96H217.319C217.319 20.4028 217.888 17.9438 218.877 16.4259L217.201 15.3341ZM215.319 23.96C215.319 28.4446 216.106 31.817 218.03 33.645L219.408 32.195C218.132 30.983 217.319 28.3821 217.319 23.96H215.319ZM218.038 33.6519C218.891 34.4464 219.806 35.035 220.785 35.3824L221.453 33.4976C220.779 33.2583 220.094 32.8336 219.4 32.1881L218.038 33.6519ZM220.812 35.3917C221.75 35.6944 222.762 35.84 223.839 35.84V33.84C222.943 33.84 222.141 33.7189 221.426 33.4883L220.812 35.3917ZM223.839 35.84C224.858 35.84 225.651 35.8137 226.189 35.7539L225.969 33.7661C225.547 33.813 224.846 33.84 223.839 33.84V35.84ZM226.148 35.7576C227.872 35.6387 229.556 35.0745 231.191 34.0988L230.167 32.3812C228.762 33.2189 227.379 33.6679 226.01 33.7624L226.148 35.7576ZM229.759 33.6319L230.679 35.7919L232.519 35.0081L231.599 32.8481L229.759 33.6319ZM231.036 34.5733C229.329 35.7351 227.037 36.36 224.079 36.36V38.36C227.308 38.36 230.029 37.6782 232.162 36.2267L231.036 34.5733ZM224.079 36.36C222.92 36.36 221.943 36.2825 221.138 36.1361L220.78 38.1039C221.735 38.2775 222.838 38.36 224.079 38.36V36.36ZM221.109 36.1313C220.359 36.0176 219.529 35.7393 218.616 35.2704L217.702 37.0496C218.763 37.594 219.8 37.9557 220.809 38.1087L221.109 36.1313ZM218.635 35.2803C217.789 34.8232 217.095 34.1981 216.544 33.3945L214.894 34.5255C215.623 35.5886 216.556 36.4302 217.684 37.0397L218.635 35.2803ZM216.555 33.4108C216.027 32.6069 215.541 31.4188 215.128 29.7938L213.19 30.2862C213.63 32.0212 214.185 33.4464 214.883 34.5092L216.555 33.4108ZM215.128 29.7938C214.727 28.2146 214.519 26.3275 214.519 24.12H212.519C212.519 26.4458 212.738 28.5054 213.19 30.2862L215.128 29.7938ZM214.519 24.12C214.519 21.9002 214.778 20.0204 215.272 18.4626L213.366 17.8574C212.794 19.6596 212.519 21.7531 212.519 24.12H214.519ZM215.272 18.4626C215.783 16.8542 216.386 15.6782 217.049 14.878L215.509 13.602C214.625 14.6685 213.922 16.1058 213.366 17.8574L215.272 18.4626ZM217.038 14.8908C217.75 14.0606 218.603 13.396 219.606 12.8944L218.712 11.1056C217.475 11.724 216.408 12.5528 215.52 13.5892L217.038 14.8908ZM251.548 37V38H252.548V37H251.548ZM236.828 37H235.828V38H236.828V37ZM236.828 11.08V10.08H235.828V11.08H236.828ZM251.108 11.08L252.1 11.204L252.24 10.08H251.108V11.08ZM250.828 13.32V14.32H251.71L251.82 13.444L250.828 13.32ZM239.508 13.32V12.32H238.508V13.32H239.508ZM239.508 22.48H238.508V23.48H239.508V22.48ZM249.508 22.48H250.508V21.48H249.508V22.48ZM249.508 24.72V25.72H250.508V24.72H249.508ZM239.468 24.72V23.72H238.468V24.72H239.468ZM239.468 34.76H238.468V35.76H239.468V34.76ZM251.548 34.76H252.548V33.76H251.548V34.76ZM251.548 36H236.828V38H251.548V36ZM237.828 37V11.08H235.828V37H237.828ZM236.828 12.08H251.108V10.08H236.828V12.08ZM250.115 10.956L249.835 13.196L251.82 13.444L252.1 11.204L250.115 10.956ZM250.828 12.32H239.508V14.32H250.828V12.32ZM238.508 13.32V22.48H240.508V13.32H238.508ZM239.508 23.48H249.508V21.48H239.508V23.48ZM248.508 22.48V24.72H250.508V22.48H248.508ZM249.508 23.72H239.468V25.72H249.508V23.72ZM238.468 24.72V34.76H240.468V24.72H238.468ZM239.468 35.76H251.548V33.76H239.468V35.76ZM250.548 34.76V37H252.548V34.76H250.548Z" fill="black"/>
</g>
<defs>
<filter id="filter0_di_6_3" x="0.23999" y="10.6" width="255.307" height="34.76" filterUnits="userSpaceOnUse" color-interpolation-filters="sRGB">
<feFlood flood-opacity="0" result="BackgroundImageFix"/>
<feColorMatrix in="SourceAlpha" type="matrix" values="0 0 0 0 0 0 0 0 0 0 0 0 0 0 0 0 0 0 127 0" result="hardAlpha"/>
<feOffset dy="4"/>
<feGaussianBlur stdDeviation="2"/>
<feComposite in2="hardAlpha" operator="out"/>
<feColorMatrix type="matrix" values="0 0 0 0 0 0 0 0 0 0 0 0 0 0 0 0 0 0 0.25 0"/>
<feBlend mode="normal" in2="BackgroundImageFix" result="effect1_dropShadow_6_3"/>
<feBlend mode="normal" in="SourceGraphic" in2="effect1_dropShadow_6_3" result="shape"/>
<feColorMatrix in="SourceAlpha" type="matrix" values="0 0 0 0 0 0 0 0 0 0 0 0 0 0 0 0 0 0 127 0" result="hardAlpha"/>
<feOffset dy="4"/>
<feGaussianBlur stdDeviation="2"/>
<feComposite in2="hardAlpha" operator="arithmetic" k2="-1" k3="1"/>
<feColorMatrix type="matrix" values="0 0 0 0 0 0 0 0 0 0 0 0 0 0 0 0 0 0 0.25 0"/>
<feBlend mode="normal" in2="shape" result="effect2_innerShadow_6_3"/>
</filter>
</defs>
</svg>
